<svg width="411" height="201" viewBox="0 0 411 201" fill="none" xmlns="http://www.w3.org/2000/svg">
<path d="M374.303 102.956C377.984 102.956 408.707 102.847 408.631 103.528C408.529 104.446 407.133 105.2 406.629 105.912C405.1 108.07 403.773 110.469 402.369 112.714C400.909 115.05 399.775 118.08 398.905 120.692" stroke="#3B3B3B" stroke-width="3" stroke-linecap="round"/>
<path d="M387.378 111.883C356.226 119.574 325.099 127.4 293.751 134.264C252.31 143.337 211.773 149.022 169.217 147.061C135.897 145.526 101.354 141.841 69.9313 130.012C49.3448 122.262 30.1933 111.697 13.7325 97.1138C10.2062 93.9898 5.78064 91.7019 2.47687 88.6809" stroke="#3B3B3B" stroke-width="3" stroke-linecap="round"/>
</svg>
